<mxfile host="app.diagrams.net" modified="2023-05-05T04:52:17.441Z" agent="Mozilla/5.0 (X11; Linux x86_64) AppleWebKit/537.36 (KHTML, like Gecko) Chrome/102.0.0.0 Safari/537.36" version="21.2.8" etag="OoMRcBjGDK4wA8kW1vw6" type="device">
  <diagram id="idunno" name="Page-1">
    <mxGraphModel dx="924" dy="536" grid="1" gridSize="10" guides="1" tooltips="1" connect="1" arrows="1" fold="1" page="1" pageScale="1" pageWidth="1654" pageHeight="1169" math="0" shadow="0">
      <root>
        <mxCell id="0" />
        <mxCell id="1" parent="0" />
        <mxCell id="idunno-0" value="Hello!2" style="shape=rectangle;whiteSpace=wrap;html=1;aspect=fixed;" parent="1" vertex="1">
          <mxGeometry x="360" y="190" width="160" height="160" as="geometry" />
        </mxCell>
        <mxCell id="idunno-0-right_port1" value="A1" style="shape=rectangle;whiteSpace=wrap;html=1;" parent="idunno-0" vertex="1">
          <mxGeometry x="1" width="50" height="50" relative="1" as="geometry">
            <mxPoint y="30" as="offset" />
          </mxGeometry>
        </mxCell>
        <mxCell id="idunno-0-left_port1" value="B1" style="shape=rectangle;whiteSpace=wrap;html=1;" parent="idunno-0" vertex="1">
          <mxGeometry width="50" height="50" relative="1" as="geometry">
            <mxPoint x="-50" y="30" as="offset" />
          </mxGeometry>
        </mxCell>
        <mxCell id="idunno-0-top_port1" value="C1" style="shape=rectangle;whiteSpace=wrap;html=1;" parent="idunno-0" vertex="1">
          <mxGeometry width="50" height="50" relative="1" as="geometry">
            <mxPoint x="30" y="-50" as="offset" />
          </mxGeometry>
        </mxCell>
        <mxCell id="idunno-0-bottom_port1" value="D1" style="shape=rectangle;whiteSpace=wrap;html=1;" parent="idunno-0" vertex="1">
          <mxGeometry y="1" width="50" height="50" relative="1" as="geometry">
            <mxPoint x="30" as="offset" />
          </mxGeometry>
        </mxCell>
      </root>
    </mxGraphModel>
  </diagram>
</mxfile>
